<svg width="237" height="100" viewBox="0 0 237 100" fill="none" xmlns="http://www.w3.org/2000/svg">
<g clip-path="url(#clip0_15_94)">
<path d="M89.652 36.8C90.036 36.8 90.324 36.908 90.516 37.124C90.708 37.316 90.876 37.616 91.02 38.024L99.84 60.776C99.864 60.848 99.876 60.932 99.876 61.028C99.876 61.292 99.78 61.52 99.588 61.712C99.396 61.904 99.168 62 98.904 62H96.312C95.832 62 95.496 61.904 95.304 61.712C95.112 61.496 94.98 61.292 94.908 61.1L93.36 57.104H81.984L80.436 61.1C80.364 61.292 80.232 61.496 80.04 61.712C79.848 61.904 79.512 62 79.032 62H76.44C76.176 62 75.948 61.904 75.756 61.712C75.564 61.52 75.468 61.292 75.468 61.028C75.468 60.932 75.48 60.848 75.504 60.776L84.324 38.024C84.468 37.616 84.636 37.316 84.828 37.124C85.02 36.908 85.308 36.8 85.692 36.8H89.652ZM91.632 52.604L87.672 42.344L83.712 52.604H91.632ZM101.036 44.252C101.036 43.988 101.132 43.76 101.324 43.568C101.516 43.376 101.744 43.28 102.008 43.28H104.744C105.008 43.28 105.236 43.376 105.428 43.568C105.62 43.76 105.716 43.988 105.716 44.252V53.396C105.716 54.836 106.016 55.988 106.616 56.852C107.24 57.716 108.248 58.148 109.64 58.148C110.912 58.148 111.884 57.716 112.556 56.852C113.228 55.988 113.564 54.836 113.564 53.396V44.252C113.564 43.988 113.66 43.76 113.852 43.568C114.044 43.376 114.272 43.28 114.536 43.28H117.272C117.536 43.28 117.764 43.376 117.956 43.568C118.148 43.76 118.244 43.988 118.244 44.252V61.028C118.244 61.292 118.148 61.52 117.956 61.712C117.764 61.904 117.536 62 117.272 62H114.536C114.272 62 114.044 61.904 113.852 61.712C113.66 61.52 113.564 61.292 113.564 61.028V60.2C113.012 60.752 112.328 61.256 111.512 61.712C110.696 62.144 109.712 62.36 108.56 62.36C107.096 62.36 105.884 62.132 104.924 61.676C103.964 61.22 103.196 60.608 102.62 59.84C102.044 59.072 101.636 58.184 101.396 57.176C101.156 56.144 101.036 55.064 101.036 53.936V44.252ZM128.084 55.232C128.084 55.976 128.276 56.576 128.66 57.032C129.068 57.464 129.812 57.68 130.892 57.68H133.088C133.352 57.68 133.58 57.776 133.772 57.968C133.964 58.16 134.06 58.388 134.06 58.652V61.028C134.06 61.292 133.964 61.52 133.772 61.712C133.58 61.904 133.352 62 133.088 62H130.424C128.168 62 126.428 61.46 125.204 60.38C124.004 59.276 123.404 57.596 123.404 55.34V47.6H121.028C120.764 47.6 120.536 47.504 120.344 47.312C120.152 47.12 120.056 46.892 120.056 46.628V44.252C120.056 43.988 120.152 43.76 120.344 43.568C120.536 43.376 120.764 43.28 121.028 43.28H123.404V37.412C123.404 37.148 123.5 36.92 123.692 36.728C123.884 36.536 124.112 36.44 124.376 36.44H127.112C127.376 36.44 127.604 36.536 127.796 36.728C127.988 36.92 128.084 37.148 128.084 37.412V43.28H132.728C132.992 43.28 133.22 43.376 133.412 43.568C133.604 43.76 133.7 43.988 133.7 44.252V46.628C133.7 46.892 133.604 47.12 133.412 47.312C133.22 47.504 132.992 47.6 132.728 47.6H128.084V55.232ZM144.408 42.92C145.728 42.92 146.916 43.124 147.972 43.532C149.052 43.94 149.976 44.504 150.744 45.224C151.536 45.944 152.16 46.784 152.616 47.744C153.096 48.704 153.372 49.736 153.444 50.84C153.468 51.056 153.48 51.332 153.48 51.668C153.48 52.004 153.48 52.34 153.48 52.676C153.48 53.012 153.48 53.348 153.48 53.684C153.48 53.996 153.468 54.26 153.444 54.476C153.348 55.58 153.072 56.612 152.616 57.572C152.16 58.532 151.536 59.372 150.744 60.092C149.976 60.788 149.052 61.34 147.972 61.748C146.916 62.156 145.728 62.36 144.408 62.36C143.088 62.36 141.888 62.156 140.808 61.748C139.752 61.34 138.828 60.788 138.036 60.092C137.268 59.372 136.656 58.532 136.2 57.572C135.744 56.612 135.468 55.58 135.372 54.476C135.348 54.26 135.324 53.996 135.3 53.684C135.3 53.348 135.3 53.012 135.3 52.676C135.3 52.34 135.3 52.004 135.3 51.668C135.324 51.332 135.348 51.056 135.372 50.84C135.444 49.736 135.708 48.704 136.164 47.744C136.644 46.784 137.268 45.944 138.036 45.224C138.828 44.504 139.752 43.94 140.808 43.532C141.888 43.124 143.088 42.92 144.408 42.92ZM148.764 51.02C148.692 50.276 148.512 49.664 148.224 49.184C147.96 48.68 147.624 48.284 147.216 47.996C146.808 47.708 146.364 47.516 145.884 47.42C145.404 47.3 144.912 47.24 144.408 47.24C143.904 47.24 143.412 47.3 142.932 47.42C142.452 47.516 142.008 47.708 141.6 47.996C141.192 48.284 140.844 48.68 140.556 49.184C140.292 49.664 140.124 50.276 140.052 51.02C140.028 51.212 140.004 51.452 139.98 51.74C139.98 52.028 139.98 52.328 139.98 52.64C139.98 52.952 139.98 53.264 139.98 53.576C140.004 53.864 140.028 54.092 140.052 54.26C140.124 55.004 140.292 55.628 140.556 56.132C140.844 56.612 141.192 56.996 141.6 57.284C142.008 57.572 142.452 57.776 142.932 57.896C143.412 57.992 143.904 58.04 144.408 58.04C144.912 58.04 145.404 57.992 145.884 57.896C146.364 57.776 146.808 57.572 147.216 57.284C147.624 56.996 147.96 56.612 148.224 56.132C148.512 55.628 148.692 55.004 148.764 54.26C148.788 54.092 148.8 53.864 148.8 53.576C148.8 53.264 148.8 52.952 148.8 52.64C148.8 52.328 148.8 52.028 148.8 51.74C148.8 51.452 148.788 51.212 148.764 51.02ZM168.266 49.652L175.106 37.772C175.202 37.652 175.358 37.46 175.574 37.196C175.814 36.932 176.174 36.8 176.654 36.8H179.102C179.366 36.8 179.594 36.896 179.786 37.088C179.978 37.28 180.074 37.508 180.074 37.772V61.028C180.074 61.292 179.978 61.52 179.786 61.712C179.594 61.904 179.366 62 179.102 62H176.186C175.922 62 175.694 61.904 175.502 61.712C175.31 61.52 175.214 61.292 175.214 61.028V46.952L170.534 55.052C170.414 55.244 170.246 55.448 170.03 55.664C169.814 55.856 169.538 55.952 169.202 55.952H167.33C166.994 55.952 166.718 55.856 166.502 55.664C166.286 55.448 166.118 55.244 165.998 55.052L161.318 46.952V61.028C161.318 61.292 161.222 61.52 161.03 61.712C160.838 61.904 160.61 62 160.346 62H157.43C157.166 62 156.938 61.904 156.746 61.712C156.554 61.52 156.458 61.292 156.458 61.028V37.772C156.458 37.508 156.554 37.28 156.746 37.088C156.938 36.896 157.166 36.8 157.43 36.8H159.878C160.358 36.8 160.706 36.932 160.922 37.196C161.162 37.46 161.33 37.652 161.426 37.772L168.266 49.652ZM183.729 44.252C183.729 43.988 183.825 43.76 184.017 43.568C184.209 43.376 184.437 43.28 184.701 43.28H187.437C187.701 43.28 187.929 43.376 188.121 43.568C188.313 43.76 188.409 43.988 188.409 44.252V53.396C188.409 54.836 188.709 55.988 189.309 56.852C189.933 57.716 190.941 58.148 192.333 58.148C193.605 58.148 194.577 57.716 195.249 56.852C195.921 55.988 196.257 54.836 196.257 53.396V44.252C196.257 43.988 196.353 43.76 196.545 43.568C196.737 43.376 196.965 43.28 197.229 43.28H199.965C200.229 43.28 200.457 43.376 200.649 43.568C200.841 43.76 200.937 43.988 200.937 44.252V61.028C200.937 61.292 200.841 61.52 200.649 61.712C200.457 61.904 200.229 62 199.965 62H197.229C196.965 62 196.737 61.904 196.545 61.712C196.353 61.52 196.257 61.292 196.257 61.028V60.2C195.705 60.752 195.021 61.256 194.205 61.712C193.389 62.144 192.405 62.36 191.253 62.36C189.789 62.36 188.577 62.132 187.617 61.676C186.657 61.22 185.889 60.608 185.313 59.84C184.737 59.072 184.329 58.184 184.089 57.176C183.849 56.144 183.729 55.064 183.729 53.936V44.252ZM210.777 55.232C210.777 55.976 210.969 56.576 211.353 57.032C211.761 57.464 212.505 57.68 213.585 57.68H215.781C216.045 57.68 216.273 57.776 216.465 57.968C216.657 58.16 216.753 58.388 216.753 58.652V61.028C216.753 61.292 216.657 61.52 216.465 61.712C216.273 61.904 216.045 62 215.781 62H213.117C210.861 62 209.121 61.46 207.897 60.38C206.697 59.276 206.097 57.596 206.097 55.34V47.6H203.721C203.457 47.6 203.229 47.504 203.037 47.312C202.845 47.12 202.749 46.892 202.749 46.628V44.252C202.749 43.988 202.845 43.76 203.037 43.568C203.229 43.376 203.457 43.28 203.721 43.28H206.097V37.412C206.097 37.148 206.193 36.92 206.385 36.728C206.577 36.536 206.805 36.44 207.069 36.44H209.805C210.069 36.44 210.297 36.536 210.489 36.728C210.681 36.92 210.777 37.148 210.777 37.412V43.28H215.421C215.685 43.28 215.913 43.376 216.105 43.568C216.297 43.76 216.393 43.988 216.393 44.252V46.628C216.393 46.892 216.297 47.12 216.105 47.312C215.913 47.504 215.685 47.6 215.421 47.6H210.777V55.232ZM217.921 52.64C217.921 51.296 218.125 50.036 218.533 48.86C218.941 47.66 219.529 46.628 220.297 45.764C221.065 44.876 221.989 44.18 223.069 43.676C224.173 43.172 225.397 42.92 226.741 42.92C228.085 42.92 229.297 43.172 230.377 43.676C231.481 44.156 232.417 44.816 233.185 45.656C233.953 46.472 234.541 47.444 234.949 48.572C235.381 49.676 235.597 50.84 235.597 52.064V53.684C235.597 53.948 235.501 54.176 235.309 54.368C235.117 54.56 234.889 54.656 234.625 54.656H222.601C222.601 55.208 222.709 55.7 222.925 56.132C223.165 56.54 223.477 56.888 223.861 57.176C224.245 57.464 224.689 57.68 225.193 57.824C225.697 57.968 226.213 58.04 226.741 58.04C227.509 58.04 228.133 57.968 228.613 57.824C229.093 57.656 229.489 57.452 229.801 57.212C230.065 57.02 230.281 56.888 230.449 56.816C230.617 56.744 230.845 56.708 231.133 56.708H234.013C234.277 56.708 234.505 56.804 234.697 56.996C234.913 57.188 235.009 57.416 234.985 57.68C234.961 58.016 234.769 58.448 234.409 58.976C234.073 59.504 233.557 60.02 232.861 60.524C232.165 61.028 231.301 61.46 230.269 61.82C229.261 62.18 228.085 62.36 226.741 62.36C225.397 62.36 224.173 62.132 223.069 61.676C221.989 61.196 221.065 60.524 220.297 59.66C219.529 58.796 218.941 57.776 218.533 56.6C218.125 55.4 217.921 54.08 217.921 52.64ZM226.741 47.24C226.045 47.24 225.445 47.348 224.941 47.564C224.461 47.756 224.053 48.02 223.717 48.356C223.381 48.668 223.117 49.028 222.925 49.436C222.757 49.82 222.649 50.192 222.601 50.552H230.737C230.689 50.192 230.593 49.82 230.449 49.436C230.329 49.028 230.113 48.668 229.801 48.356C229.513 48.02 229.117 47.756 228.613 47.564C228.133 47.348 227.509 47.24 226.741 47.24Z" fill="white"/>
<line x1="5" y1="41" x2="5" y2="59" stroke="white" stroke-width="8" stroke-linecap="round"/>
<line x1="37.3763" y1="37.9407" x2="38.8814" y2="36.6237" stroke="white" stroke-width="8" stroke-linecap="round"/>
<line x1="38.6444" y1="58.6241" x2="40.1494" y2="59.9412" stroke="white" stroke-width="8" stroke-linecap="round"/>
<line x1="39" y1="48" x2="45" y2="48" stroke="white" stroke-width="8" stroke-linecap="round"/>
<line x1="15" y1="34" x2="15" y2="66" stroke="white" stroke-width="8" stroke-linecap="round"/>
<line x1="25" y1="24" x2="25" y2="76" stroke="white" stroke-width="8" stroke-linecap="round"/>
</g>
<defs>
<clipPath id="clip0_15_94">
<rect width="237" height="100" fill="white"/>
</clipPath>
</defs>
</svg>
